<svg width="297" height="301" viewBox="0 0 297 301" fill="none" xmlns="http://www.w3.org/2000/svg">
<path fill-rule="evenodd" clip-rule="evenodd" d="M257.094 195.978C246.778 231.507 227.226 268.659 191.643 278.701C157.167 288.43 126.105 261.62 96.6463 241.256C68.7973 222.006 38.4327 202.268 32.7537 168.869C26.6633 133.05 41.3676 96.3116 67.7532 71.3321C93.7228 46.7465 130.441 37.0609 165.671 43.0347C199.163 48.7136 225.783 71.9163 243.219 101.085C260.469 129.942 266.475 163.672 257.094 195.978Z" fill="url(#paint0_linear_86772_30)"/>
<path d="M248.802 133.862C119.602 112.711 127.124 167.689 147.036 197.823C149.281 215.724 179.783 210.246 194.753 205.269C197.459 198.773 207.134 185.228 224.183 183.016C241.231 180.804 238.892 174.658 235.592 171.862C261.14 164.373 250.394 159.861 241.827 158.541C315.922 154.805 273.082 137.298 248.802 133.862Z" fill="#D9D9D9"/>
<path d="M252.045 136.009C120.313 116.907 129.211 172.203 150.126 202.239C152.816 220.247 183.676 214.2 198.77 208.925C201.371 202.33 210.89 188.509 228.158 185.986C245.426 183.463 242.91 177.307 239.494 174.545C265.276 166.556 254.256 162.192 245.523 161.008C310.125 148.322 276.789 139.056 252.045 136.009Z" fill="url(#paint1_linear_86772_30)"/>
<line x1="1.5" y1="-1.5" x2="26.0633" y2="-1.5" transform="matrix(-0.877037 0.460427 0.257597 0.972271 135.291 223.549)" stroke="#FF6B0A" stroke-width="3" stroke-linecap="round"/>
<path d="M101.724 240.952L111.283 233.14" stroke="#FF6B0A" stroke-width="3" stroke-linecap="round"/>
<path d="M103.979 233.116L111.272 232.458" stroke="#FF6B0A" stroke-width="3" stroke-linecap="round"/>
<path d="M105.161 246.033L112.121 233.33" stroke="#FF6B0A" stroke-width="3" stroke-linecap="round"/>
<path d="M56.5023 105.066C186.322 116.458 172.001 168.692 148.613 193.386C144.151 210.445 114.821 197.449 100.713 188.819C98.867 181.751 91.0492 166.008 74.5487 159.581C58.0482 153.154 61.1229 147.688 64.7229 145.759C40.5209 132.019 51.6651 130.258 60.2624 131.094C-12.1913 108.946 32.1739 102.396 56.5023 105.066Z" fill="#D9D9D9"/>
<path d="M52.7328 108.775C184.786 122.814 169.072 175.018 144.708 199.366C139.796 216.419 110.184 202.774 95.9923 193.82C94.2623 186.681 86.6327 170.705 69.955 163.917C53.2772 157.129 56.5279 151.698 60.2379 149.831C35.8685 135.541 47.2632 133.993 56.0067 135.006C-5.9779 106.414 27.9972 105.606 52.7328 108.775Z" fill="url(#paint2_linear_86772_30)"/>
<path d="M191.624 173.404C186.039 210.064 148.469 265.605 42.8718 194.487C93.5179 164.061 194.173 117.247 191.624 173.404Z" fill="url(#paint3_linear_86772_30)"/>
<path d="M149.207 77.4298C144.182 60.4524 151.301 53.8501 155.489 52.6711C158.63 55.6186 169.811 61.5135 164.283 61.5135C158.755 61.5135 160.305 72.1244 161.771 77.4298C188.908 129.07 173.078 157.896 164.911 165.854C155.489 160.549 139.785 148.346 152.348 141.979C168.052 134.021 155.489 98.6516 149.207 77.4298Z" fill="white"/>
<ellipse rx="12.4311" ry="36.0947" transform="matrix(0.19598 0.980608 -0.929751 0.36819 143.596 208.183)" fill="url(#paint4_radial_86772_30)"/>
<line x1="1.5" y1="-1.5" x2="25.017" y2="-1.5" transform="matrix(-0.951849 0.28388 0.149384 0.992489 122.329 221.529)" stroke="#FF6B0A" stroke-width="3" stroke-linecap="round"/>
<path d="M87.5203 233.296L97.6602 227.102" stroke="#FF6B0A" stroke-width="3" stroke-linecap="round"/>
<path d="M90.4084 225.882L97.7057 226.423" stroke="#FF6B0A" stroke-width="3" stroke-linecap="round"/>
<path d="M90.5144 238.905L98.477 227.428" stroke="#FF6B0A" stroke-width="3" stroke-linecap="round"/>
<path d="M183.658 86.5189C165.843 100.346 157.574 92.2802 155.666 86.5189C142.659 75.6321 145.677 38.4748 167.945 38.4748C190.213 38.4748 205.926 69.2347 183.658 86.5189Z" fill="white"/>
<path d="M170.848 76.9226L174.428 73.6777C179.286 69.274 185.769 67.489 191.676 68.929C191.907 68.9853 192.077 69.1708 192.12 69.4117L197.947 102.631C198.296 104.623 195.809 106.049 194.503 104.607L170.717 78.3423C170.363 77.9517 170.423 77.3082 170.848 76.9226Z" fill="#DF5B04"/>
<path d="M170.113 76.9126L173.482 73.9631C178.681 69.412 185.494 67.5497 191.752 68.9692C191.938 69.0116 192.093 69.1316 192.181 69.3019L207.043 98.0846C207.976 99.8925 205.789 101.987 204.115 100.888L170.132 78.5683C169.587 78.2101 169.577 77.3819 170.113 76.9126Z" fill="#FF6B0A"/>
<ellipse rx="2.28925" ry="3.22247" transform="matrix(-1 0 0 1 191.461 60.446)" fill="#797979"/>
<ellipse rx="2.28925" ry="3.22247" transform="matrix(-1 0 0 1 167.945 63.6686)" fill="#797979"/>
<path d="M184.535 20.2L184.016 16.3507L151.33 25.0757L154.142 45.9495L155.291 45.6428L182.55 40.8029L186.828 37.2244L184.873 22.7151L185.034 22.7029L185.01 20.1958L184.535 20.2Z" fill="#373500"/>
<ellipse rx="17.4004" ry="2.37321" transform="matrix(-0.96617 0.257905 0.133509 0.991048 168.206 24.6891)" fill="#0C0632"/>
<path d="M187.215 37.1905C198.351 38.094 208.921 58.3808 162.467 47.6728L187.215 37.1905Z" fill="#373500"/>
<path d="M187.292 37.0205C185.559 44.2814 157.455 51.3957 153.657 45.9989L151.429 29.2132C156.385 30.1562 165.202 23.8591 172.826 25.6994L182.564 37.8949L185.011 20.1957L187.292 37.0205Z" fill="#494600"/>
<ellipse rx="16.9114" ry="2.37321" transform="matrix(-0.96617 0.257905 0.133509 0.991048 167.716 21.0062)" fill="#373500"/>
<ellipse rx="17.1494" ry="2.37321" transform="matrix(-0.96617 0.257905 0.133509 0.991048 167.963 24.7539)" fill="#373500"/>
<path d="M162.441 8.13603C162.397 8.21301 162.358 8.27332 162.328 8.33886C162.066 8.872 161.962 9.39315 162.038 10.0196C162.07 10.285 162.126 10.5482 162.17 10.8077C162.21 11.0371 162.249 11.2624 162.286 11.4932C162.295 11.5534 162.307 11.5749 162.358 11.5596C162.463 11.5218 162.568 11.5444 162.646 11.6586C162.716 11.7579 162.731 11.8797 162.703 12.0042C162.675 12.1328 162.604 12.2134 162.515 12.2616C162.47 12.2837 162.433 12.2739 162.394 12.2285C162.09 11.8883 161.856 11.4771 161.68 11.0008C161.535 10.606 161.451 10.1816 161.355 9.76728C161.3 9.53152 161.238 9.29461 161.189 9.05589C161.156 8.9059 161.117 8.7685 161.052 8.63878C160.987 8.50907 160.904 8.40191 160.798 8.32025C160.748 8.46881 160.732 8.62454 160.748 8.77781C160.765 8.92143 160.797 9.06734 160.829 9.20361C160.865 9.35213 160.916 9.49329 160.956 9.63478C161.065 10.0102 161.177 10.3842 161.277 10.7641C161.44 11.3987 161.478 12.0484 161.383 12.7079C161.372 12.7961 161.335 12.8372 161.276 12.857C161.127 12.9113 160.978 12.8132 160.93 12.6293C160.885 12.4578 160.956 12.2481 161.095 12.1708C161.146 12.1416 161.142 12.1157 161.121 12.0614C161.016 11.7765 160.912 11.486 160.809 11.1996C160.69 10.8753 160.586 10.5436 160.4 10.2751C160.153 9.9206 159.88 9.73591 159.528 9.62658C159.502 9.62055 159.477 9.61451 159.44 9.60472C159.45 9.64148 159.457 9.66599 159.463 9.6905C159.879 11.2713 160.277 12.7867 160.693 14.3674C160.716 14.4573 160.716 14.4573 160.78 14.4264C161.018 14.3101 161.259 14.1923 161.498 14.076C161.54 14.0554 161.562 14.0629 161.586 14.1157C161.769 14.5148 162.027 14.7948 162.36 14.9363C162.43 14.967 162.497 15.017 162.566 15.0573C162.646 14.7787 162.797 14.5389 162.846 14.2338C162.886 13.9839 162.904 13.7306 162.875 13.4775C162.87 13.42 162.884 13.3949 162.921 13.3772C163.165 13.258 163.406 13.1402 163.651 13.021C163.693 13.0004 163.708 12.9793 163.691 12.9139C163.273 11.325 162.871 9.79734 162.453 8.20841C162.457 8.1973 162.453 8.18096 162.441 8.13603ZM162.367 8.99263C162.374 8.99377 162.383 8.98935 162.39 8.99049C162.398 9.01909 162.405 9.04768 162.413 9.07627C162.614 9.8401 162.798 10.5427 162.999 11.3065C163.032 11.4331 163.032 11.4331 162.936 11.4802C162.9 11.4979 162.878 11.4945 162.856 11.4499C162.78 11.3164 162.678 11.2373 162.559 11.2124C162.508 11.2003 162.492 11.1665 162.483 11.1064C162.437 10.8113 162.392 10.5106 162.336 10.22C162.279 9.91558 162.27 9.67145 162.311 9.36113C162.325 9.23432 162.348 9.11682 162.367 8.99263ZM159.884 10.2178C159.89 10.2148 159.892 10.2093 159.898 10.2063C159.925 10.2302 159.952 10.254 159.975 10.2793C160.157 10.467 160.304 10.6119 160.411 10.8872C160.544 11.2371 160.67 11.59 160.8 11.9415C160.819 11.9875 160.819 12.0246 160.79 12.0709C160.711 12.1971 160.667 12.3427 160.668 12.513C160.668 12.5912 160.639 12.6238 160.555 12.6416C160.504 12.6529 160.509 12.595 160.499 12.5583C160.295 11.7822 160.107 11.0674 159.902 10.2872C159.893 10.2642 159.886 10.2397 159.884 10.2178ZM162.645 12.576C162.659 12.5645 162.676 12.5516 162.695 12.5331C162.87 12.3832 162.985 12.1845 162.975 11.8895C162.975 11.8483 162.982 11.8261 163.011 11.817C163.032 11.8067 163.053 11.7964 163.074 11.786C163.104 11.7713 163.121 11.7818 163.131 11.8226C163.212 12.129 163.293 12.4394 163.371 12.7472C163.375 12.7636 163.361 12.8121 163.349 12.818C163.187 12.9016 163.021 12.9825 162.857 13.0579C162.845 13.0638 162.813 13.047 162.806 13.0321C162.753 12.8828 162.7 12.7335 162.645 12.576ZM161.354 13.206C161.385 13.3753 161.411 13.5378 161.44 13.703C161.449 13.7494 161.425 13.7612 161.401 13.773C161.247 13.848 161.095 13.9176 160.942 13.9967C160.894 14.0203 160.872 14.0031 160.859 13.9404C160.79 13.6652 160.715 13.393 160.642 13.1153C160.609 12.9886 160.609 12.9886 160.703 12.943C160.73 12.9298 160.754 12.918 160.775 12.9585C160.893 13.173 161.057 13.2404 161.244 13.2274C161.283 13.222 161.321 13.2084 161.354 13.206ZM161.691 11.742C161.858 12.0154 162.023 12.2805 162.228 12.5031C162.157 12.6345 162.091 12.7589 162.021 12.8807C162.012 12.8988 161.98 12.9054 161.961 12.9005C161.866 12.8734 161.774 12.8352 161.678 12.8081C161.649 12.7995 161.637 12.782 161.643 12.7379C161.689 12.4342 161.693 12.1278 161.687 11.8177C161.69 11.7929 161.69 11.7654 161.691 11.742ZM162.603 13.5414C162.671 13.7479 162.617 14.2537 162.531 14.3553C162.527 14.3527 162.523 14.3501 162.523 14.3501C162.467 14.1377 162.408 13.9268 162.356 13.717C162.352 13.7007 162.367 13.6658 162.378 13.6559C162.451 13.6109 162.527 13.5782 162.603 13.5414ZM162.28 14.4872C162.123 14.4483 161.857 14.0849 161.835 13.9112C161.902 13.8788 161.974 13.8435 162.041 13.8111C162.08 13.792 162.097 13.8065 162.11 13.8555C162.155 14.0271 162.2 14.1986 162.245 14.3702C162.258 14.4055 162.268 14.4422 162.28 14.4872ZM162.412 13.2702C162.373 13.2894 162.332 13.314 162.291 13.325C162.279 13.3309 162.246 13.31 162.246 13.2963C162.217 13.1077 162.26 12.9113 162.376 12.8086C162.401 12.7872 162.418 12.788 162.434 12.8218C162.475 12.9262 162.513 13.0321 162.555 13.1406C162.569 13.18 162.555 13.2051 162.528 13.2184C162.491 13.2319 162.452 13.2511 162.412 13.2702ZM161.857 13.5411C161.821 13.5587 161.788 13.5749 161.752 13.5926C161.717 13.6143 161.69 13.6042 161.682 13.5482C161.664 13.4416 161.647 13.3351 161.632 13.2271C161.625 13.1751 161.64 13.1541 161.68 13.1527C161.807 13.1417 161.953 13.2591 161.998 13.417C162.003 13.4333 161.989 13.4722 161.978 13.4822C161.937 13.5069 161.897 13.5219 161.857 13.5411Z" fill="#FFD500"/>
<ellipse rx="10.0964" ry="11.619" transform="matrix(-0.641068 0.767484 0.517133 0.855905 160.666 78.1397)" fill="url(#paint5_radial_86772_30)"/>
<defs>
<linearGradient id="paint0_linear_86772_30" x1="258.08" y1="194.853" x2="38.6259" y2="114.529" gradientUnits="userSpaceOnUse">
<stop stop-color="#A5DEFF"/>
<stop offset="1" stop-color="#BDE7FF"/>
</linearGradient>
<linearGradient id="paint1_linear_86772_30" x1="203.085" y1="130.019" x2="215.461" y2="207.919" gradientUnits="userSpaceOnUse">
<stop stop-color="white"/>
<stop offset="1" stop-color="#F5F5F5"/>
</linearGradient>
<linearGradient id="paint2_linear_86772_30" x1="101.672" y1="115.085" x2="72.0654" y2="185.46" gradientUnits="userSpaceOnUse">
<stop stop-color="white"/>
<stop offset="1" stop-color="#F9F9F9"/>
</linearGradient>
<linearGradient id="paint3_linear_86772_30" x1="148.417" y1="154.993" x2="74.2791" y2="190.786" gradientUnits="userSpaceOnUse">
<stop stop-color="white"/>
<stop offset="1" stop-color="#F5F5F5"/>
</linearGradient>
<radialGradient id="paint4_radial_86772_30" cx="0" cy="0" r="1" gradientUnits="userSpaceOnUse" gradientTransform="translate(12.4311 36.0947) rotate(90) scale(36.0947 12.4311)">
<stop stop-color="#E8E8E8"/>
<stop offset="1" stop-color="#EFEFEF" stop-opacity="0.5"/>
</radialGradient>
<radialGradient id="paint5_radial_86772_30" cx="0" cy="0" r="1" gradientUnits="userSpaceOnUse" gradientTransform="translate(10.0964 11.619) rotate(90) scale(11.619 10.0964)">
<stop stop-color="#FFBBBB"/>
<stop offset="1" stop-color="#FFBBBB" stop-opacity="0"/>
</radialGradient>
</defs>
</svg>
