<svg width="16" height="16" viewBox="0 0 16 16" fill="none" xmlns="http://www.w3.org/2000/svg">
<path fill-rule="evenodd" clip-rule="evenodd" d="M1.1516 1.15159C1.37663 0.926629 1.6818 0.80025 2 0.80025C2.3182 0.80025 2.62337 0.926629 2.8484 1.15159L8 6.30319L13.1516 1.15159C13.2623 1.03698 13.3947 0.945563 13.5411 0.882672C13.6875 0.819781 13.845 0.786678 14.0043 0.785293C14.1637 0.783909 14.3217 0.81427 14.4691 0.874607C14.6166 0.934944 14.7506 1.02405 14.8633 1.13672C14.9759 1.24939 15.065 1.38337 15.1254 1.53085C15.1857 1.67832 15.2161 1.83634 15.2147 1.99568C15.2133 2.15501 15.1802 2.31247 15.1173 2.45888C15.0544 2.60528 14.963 2.7377 14.8484 2.84839L9.6968 7.99999L14.8484 13.1516C15.067 13.3779 15.1879 13.681 15.1852 13.9957C15.1825 14.3103 15.0563 14.6113 14.8338 14.8338C14.6113 15.0563 14.3103 15.1825 13.9957 15.1852C13.681 15.1879 13.3779 15.067 13.1516 14.8484L8 9.69679L2.8484 14.8484C2.62208 15.067 2.31895 15.1879 2.00432 15.1852C1.68968 15.1825 1.38871 15.0563 1.16622 14.8338C0.943727 14.6113 0.817523 14.3103 0.814789 13.9957C0.812055 13.681 0.933009 13.3779 1.1516 13.1516L6.3032 7.99999L1.1516 2.84839C0.926633 2.62336 0.800255 2.31819 0.800255 1.99999C0.800255 1.6818 0.926633 1.37663 1.1516 1.15159Z" fill="#1B1D1F"/>
</svg>
